<svg xmlns="http://www.w3.org/2000/svg" width="272.699" height="83.989" viewBox="0 0 272.699 83.989"><defs><style>.a{fill:#fff;}</style></defs><g transform="translate(0)"><path class="a" d="M144.849,63.483a29.6,29.6,0,0,0,.185-3.316c0-16.92-14.024-30.634-31.327-30.634S82.381,43.247,82.381,60.167,96.405,90.8,113.708,90.8a31.321,31.321,0,0,0,29.055-19.17l-13.5-2.367a17.287,17.287,0,0,1-15.123,9.162A17.6,17.6,0,0,1,97.014,63.483ZM114.141,42.249a17.412,17.412,0,0,1,16.154,11.4H97.973A17.4,17.4,0,0,1,114.141,42.249Z" transform="translate(91.934 -6.81)"/><rect class="a" width="15.996" height="58.878" transform="translate(149.899 24.007)"/><path class="a" d="M82.014,21.2a8.917,8.917,0,1,0,8.917,8.922A8.923,8.923,0,0,0,82.014,21.2" transform="translate(75.888 -21.2)"/><path class="a" d="M70.434,23.081v31.7H35.946v-31.7H18.457v77.706H35.946v-31.7H70.434v31.7h17.5V23.081Z" transform="translate(-18.457 -17.952)"/><path class="a" d="M93.543,30.821v3.158a30.62,30.62,0,1,0-.368,52.577v3.068h15.611v-58.8ZM78.384,77.871A17.711,17.711,0,1,1,96.3,60.168,17.793,17.793,0,0,1,78.384,77.871Z" transform="translate(30.641 -6.789)"/><path class="a" d="M134.021,28a31.653,31.653,0,0,0-26.1,30.852v33.5h15.317l.008-34.13a15.314,15.314,0,0,1,13.427-15.189Z" transform="translate(136.031 -9.462)"/></g></svg>