<svg xmlns="http://www.w3.org/2000/svg" xmlns:xlink="http://www.w3.org/1999/xlink" width="294.774" height="158.575" viewBox="0 0 294.774 158.575"><defs><style>.a{fill:#cccaca;}.b{fill:#fff;}.c{fill:#c0c0bf;}.d{fill:#efefef;}.e{fill:url(#a);}.f{fill:#040506;}.g{fill:#4ca039;}.h{fill:#d69c00;}</style><linearGradient id="a" x1="0.867" y1="7.029" x2="1.537" y2="7.029" gradientUnits="objectBoundingBox"><stop offset="0" stop-color="#151515"/><stop offset="1" stop-color="#555"/><stop offset="1" stop-color="#fb9d27"/></linearGradient></defs><g transform="translate(0 0)"><g transform="translate(199.871 92.502)"><g transform="translate(57.033)"><path class="a" d="M291.681,128.938c.01-.114.018-.228.018-.344a3.263,3.263,0,1,0-3.263,3.19,3.264,3.264,0,0,0,3.027-2l-1.406-.246a1.8,1.8,0,0,1-1.574.954,1.831,1.831,0,0,1-1.784-1.556Zm-3.2-2.21a1.811,1.811,0,0,1,1.68,1.187H286.8A1.815,1.815,0,0,1,288.483,126.728Z" transform="translate(-267.024 -123.039)"/><rect class="a" width="1.666" height="6.131" transform="translate(15.609 2.499)"/><path class="a" d="M285.082,124.489a.928.928,0,1,0,.931.928.929.929,0,0,0-.931-.928" transform="translate(-268.641 -124.489)"/><path class="a" d="M283.566,124.7V128h-3.591v-3.3h-1.821v8.091h1.821v-3.3h3.591v3.3h1.822V124.7Z" transform="translate(-278.153 -124.162)"/><path class="a" d="M286.134,125.539v.328a3.189,3.189,0,1,0-.039,5.476v.318h1.626v-6.122Zm-1.577,4.9a1.845,1.845,0,1,1,1.864-1.843A1.852,1.852,0,0,1,284.557,130.438Z" transform="translate(-273.203 -123.037)"/><path class="a" d="M290.7,125.235a3.3,3.3,0,0,0-2.72,3.213v3.487h1.6v-3.555a1.6,1.6,0,0,1,1.4-1.58Z" transform="translate(-262.578 -123.306)"/></g><g transform="translate(0 1.156)"><path class="a" d="M257.31,127.013c.047-.233.085-.432.119-.6s.065-.346.1-.533h.915l-.124.783c.067-.067.153-.153.253-.259a1.948,1.948,0,0,1,.372-.295,2.546,2.546,0,0,1,.532-.246,2.157,2.157,0,0,1,.719-.106,1.693,1.693,0,0,1,.745.16,1.764,1.764,0,0,1,.564.437,1.941,1.941,0,0,1,.357.626,2.188,2.188,0,0,1,.124.732,3.962,3.962,0,0,1-.287,1.58,3.309,3.309,0,0,1-.727,1.1,2.813,2.813,0,0,1-.987.636,3.038,3.038,0,0,1-1.073.207,2.349,2.349,0,0,1-.737-.1,3.117,3.117,0,0,1-.646-.313l-.481,2.492h-.951Zm.393,2.937a1.6,1.6,0,0,0,.525.323,2.014,2.014,0,0,0,1.737-.194,2.189,2.189,0,0,0,.7-.809,3.979,3.979,0,0,0,.217-.6,2.788,2.788,0,0,0,.1-.726,1.676,1.676,0,0,0-.246-.967.917.917,0,0,0-.8-.352,1.62,1.62,0,0,0-.683.147,1.886,1.886,0,0,0-.587.411,2.561,2.561,0,0,0-.447.639,2.979,2.979,0,0,0-.261.814Z" transform="translate(-256.092 -123.627)"/><path class="a" d="M261.721,125.744a2.611,2.611,0,0,1,.926.158,1.993,1.993,0,0,1,.711.452,2.04,2.04,0,0,1,.458.714,2.617,2.617,0,0,1,.16.933,3.544,3.544,0,0,1-.228,1.28,3.294,3.294,0,0,1-.631,1.039,2.9,2.9,0,0,1-.962.693,2.946,2.946,0,0,1-1.228.251,2.429,2.429,0,0,1-.91-.163,2.042,2.042,0,0,1-.706-.458,2.065,2.065,0,0,1-.458-.708,2.489,2.489,0,0,1-.16-.918,3.441,3.441,0,0,1,.233-1.256,3.325,3.325,0,0,1,.649-1.044,3.165,3.165,0,0,1,.962-.708A2.684,2.684,0,0,1,261.721,125.744Zm-.114.851a1.544,1.544,0,0,0-.7.173,2.134,2.134,0,0,0-.621.473,2.4,2.4,0,0,0-.439.721,2.359,2.359,0,0,0-.168.9,1.827,1.827,0,0,0,.323,1.117,1.189,1.189,0,0,0,1.016.437,1.673,1.673,0,0,0,.721-.168,2.071,2.071,0,0,0,.631-.465,2.275,2.275,0,0,0,.452-.714,2.376,2.376,0,0,0,.173-.923,1.759,1.759,0,0,0-.334-1.138A1.274,1.274,0,0,0,261.608,126.595Z" transform="translate(-251.967 -123.655)"/><path class="a" d="M261.105,125.809h1.026l.346,3.942,1.967-3.942h.825l.414,3.976,1.843-3.976H268.6L265.942,131h-.962l-.447-3.606L262.69,131h-.915Z" transform="translate(-248.145 -123.552)"/><path class="a" d="M266.9,125.744a2.282,2.282,0,0,1,.931.173,1.753,1.753,0,0,1,.633.47,1.88,1.88,0,0,1,.357.693,3.073,3.073,0,0,1,.111.843,4,4,0,0,1-.1.882h-3.855a.817.817,0,0,0-.01.1v.067a1.582,1.582,0,0,0,.341,1.034,1.254,1.254,0,0,0,1.034.419,2.059,2.059,0,0,0,.858-.163,2.6,2.6,0,0,0,.716-.507l.548.579a3.134,3.134,0,0,1-.923.659,2.877,2.877,0,0,1-1.267.269,2.629,2.629,0,0,1-.977-.168,2.007,2.007,0,0,1-.706-.463,1.953,1.953,0,0,1-.429-.7,2.579,2.579,0,0,1-.145-.871,3.873,3.873,0,0,1,.212-1.29,3.278,3.278,0,0,1,.6-1.057,2.955,2.955,0,0,1,.91-.708A2.556,2.556,0,0,1,266.9,125.744Zm1.1,2.324a.615.615,0,0,1,.008-.1c0-.028.005-.062.005-.1a1.535,1.535,0,0,0-.292-.954,1.038,1.038,0,0,0-.892-.385,1.54,1.54,0,0,0-1.083.408,2.319,2.319,0,0,0-.649,1.132Z" transform="translate(-243.535 -123.655)"/><path class="a" d="M266.941,126.919c.044-.217.083-.406.111-.564s.059-.328.09-.5h.915l-.135.827c.075-.083.166-.176.274-.279a2.642,2.642,0,0,1,.375-.3,2.2,2.2,0,0,1,.476-.233,1.7,1.7,0,0,1,.6-.1,1.805,1.805,0,0,1,.333.028,1.568,1.568,0,0,1,.269.072l-.357.938a1.4,1.4,0,0,0-.259-.072,1.634,1.634,0,0,0-.29-.018,1.392,1.392,0,0,0-.608.134,1.828,1.828,0,0,0-.514.364,2.036,2.036,0,0,0-.38.525,2.4,2.4,0,0,0-.217.618l-.514,2.681h-.962Z" transform="translate(-240.153 -123.6)"/><path class="a" d="M270.6,125.744a2.287,2.287,0,0,1,.933.173,1.721,1.721,0,0,1,.631.47,1.848,1.848,0,0,1,.359.693,3.178,3.178,0,0,1,.111.843,3.982,3.982,0,0,1-.1.882h-3.855a.513.513,0,0,0-.01.1v.067a1.582,1.582,0,0,0,.341,1.034,1.252,1.252,0,0,0,1.031.419,2.063,2.063,0,0,0,.861-.163,2.632,2.632,0,0,0,.716-.507l.545.579a3.118,3.118,0,0,1-.92.659,2.881,2.881,0,0,1-1.269.269A2.63,2.63,0,0,1,269,131.1a2,2,0,0,1-.7-.463,1.953,1.953,0,0,1-.429-.7,2.519,2.519,0,0,1-.145-.871,3.868,3.868,0,0,1,.212-1.29,3.187,3.187,0,0,1,.6-1.057,2.926,2.926,0,0,1,.91-.708A2.546,2.546,0,0,1,270.6,125.744Zm1.107,2.324c0-.036,0-.07.005-.1a.582.582,0,0,0,.008-.1,1.534,1.534,0,0,0-.292-.954,1.041,1.041,0,0,0-.892-.385,1.546,1.546,0,0,0-1.086.408,2.336,2.336,0,0,0-.646,1.132Z" transform="translate(-237.651 -123.655)"/><path class="a" d="M273.487,131.751c-.052.059-.127.134-.223.225a2.171,2.171,0,0,1-.364.261,2.447,2.447,0,0,1-.491.217,1.948,1.948,0,0,1-.608.09,1.909,1.909,0,0,1-.711-.134,1.687,1.687,0,0,1-.592-.385,1.906,1.906,0,0,1-.4-.62,2.189,2.189,0,0,1-.152-.838,3.77,3.77,0,0,1,.308-1.6,3.47,3.47,0,0,1,.76-1.083,2.942,2.942,0,0,1,.982-.62,2.85,2.85,0,0,1,.967-.194,2.821,2.821,0,0,1,.783.083,2.7,2.7,0,0,1,.579.264l.481-2.482h.972l-1.228,6.323c-.047.23-.085.429-.119.6s-.065.346-.093.53H273.4Zm.669-3.485a1.694,1.694,0,0,0-.558-.274,2.608,2.608,0,0,0-.659-.072,1.59,1.59,0,0,0-.719.173,2.105,2.105,0,0,0-.639.5,2.554,2.554,0,0,0-.458.789,2.984,2.984,0,0,0-.173,1.034,1.511,1.511,0,0,0,.264.931,1,1,0,0,0,.853.354,1.475,1.475,0,0,0,.683-.158,1.879,1.879,0,0,0,.52-.39,2.159,2.159,0,0,0,.352-.5,1.88,1.88,0,0,0,.178-.491Z" transform="translate(-234.132 -124.936)"/><path class="a" d="M274.306,124.936h.959l-.546,2.849a2.667,2.667,0,0,1,.256-.24,1.917,1.917,0,0,1,.364-.233,2.072,2.072,0,0,1,.478-.173,2.478,2.478,0,0,1,.61-.067,1.707,1.707,0,0,1,.771.165,1.743,1.743,0,0,1,.563.447,1.93,1.93,0,0,1,.346.644,2.485,2.485,0,0,1,.119.765,3.837,3.837,0,0,1-.248,1.406,3.121,3.121,0,0,1-.69,1.091,3.216,3.216,0,0,1-1.063.7,3.552,3.552,0,0,1-1.362.251,5.021,5.021,0,0,1-1.145-.124,3.045,3.045,0,0,1-.809-.279Zm-.336,6.613a2.513,2.513,0,0,0,.53.119q.221.015.52.016a2.235,2.235,0,0,0,.928-.184,1.923,1.923,0,0,0,.693-.514,2.355,2.355,0,0,0,.429-.77,2.888,2.888,0,0,0,.153-.944,2.411,2.411,0,0,0-.057-.525,1.131,1.131,0,0,0-.183-.424.925.925,0,0,0-.336-.284,1.08,1.08,0,0,0-.507-.109,1.737,1.737,0,0,0-.682.129,1.673,1.673,0,0,0-.525.346,1.872,1.872,0,0,0-.365.491,2.086,2.086,0,0,0-.194.564Z" transform="translate(-229.432 -124.936)"/><path class="a" d="M275.161,132.334a1.68,1.68,0,0,0,.264.155.853.853,0,0,0,.362.067.684.684,0,0,0,.3-.067.92.92,0,0,0,.269-.222,3.386,3.386,0,0,0,.284-.4c.1-.163.217-.365.352-.6l.189-.336-1.218-5.116h1.073l.838,3.922,2.179-3.922h1.083l-3.374,5.775c-.163.277-.318.525-.463.742a4.054,4.054,0,0,1-.442.566,1.8,1.8,0,0,1-.476.362,1.192,1.192,0,0,1-.551.129,2.151,2.151,0,0,1-.561-.072,1.166,1.166,0,0,1-.478-.284Z" transform="translate(-226.445 -123.552)"/></g></g><g transform="translate(0 0)"><path class="b" d="M265.642,133.83l-.2-.9a2.689,2.689,0,0,0-.085-.29L260.022,118a2.348,2.348,0,0,0-1.225-1.339c-.052-.026-.106-.047-.16-.067l-.5-.189-7.058-19.392a12.7,12.7,0,0,0-11.892-8.3,12.56,12.56,0,0,0-4.291.757l-47.816,17.4a12.662,12.662,0,0,0-7.546,16.183l5.879,16.155-.256.463a2.368,2.368,0,0,0-.163,1.965l3.242,8.9a2.312,2.312,0,0,0,.638.951l.437.393-.059.587a2.306,2.306,0,0,0,.129,1.05l3.239,8.9a2.351,2.351,0,0,0,1.225,1.337c.039.018.078.036.116.052l.476.194,27.29,74.982a12.7,12.7,0,0,0,11.895,8.3,12.573,12.573,0,0,0,4.291-.757l47.816-17.4a12.662,12.662,0,0,0,7.544-16.183l-10.2-28.021" transform="translate(-178.779 -88.708)"/><g transform="translate(2.024 2.024)"><rect class="c" width="6.211" height="5.647" transform="translate(40.644 141.544) rotate(-20)"/><rect class="d" width="8.574" height="5.647" transform="translate(100.323 119.822) rotate(-20)"/><path class="d" d="M283.534,211.212a6.365,6.365,0,0,1-3.8,8.151l-47.814,17.4a6.367,6.367,0,0,1-8.151-3.8L181.575,117.04a6.365,6.365,0,0,1,3.8-8.151l6.67-2.428,2.689,3.224a2.123,2.123,0,0,0,2.536.892l27.892-10.152a2.124,2.124,0,0,0,1.37-2.314l-.344-4.077,7-2.549a6.367,6.367,0,0,1,8.151,3.8Z" transform="translate(-176.979 -86.937)"/><rect class="c" width="6.211" height="5.647" transform="translate(1.271 33.365) rotate(-20)"/><rect class="d" width="8.574" height="5.647" transform="translate(60.95 11.644) rotate(-20)"/><g transform="translate(4.212 20.535)"><path class="c" d="M227.659,221.512,185.466,105.585a6.366,6.366,0,0,1,3.8-8.151l-3.891,1.417a6.365,6.365,0,0,0-3.8,8.151l42.193,115.926a6.367,6.367,0,0,0,8.151,3.8l3.891-1.417A6.365,6.365,0,0,1,227.659,221.512Z" transform="translate(-181.192 -97.434)"/></g><path class="e" d="M256.875,117.448l5.331,14.643a.344.344,0,0,1-.2.437l-.83.3,27.437,75.382-3.984,1.45-38.99-107.119,3.986-1.45,5.987,16.452.83-.3A.34.34,0,0,1,256.875,117.448Zm-72.691,2.221a6.367,6.367,0,0,1,3.8-8.151l6.667-2.428,2.691,3.224a2.118,2.118,0,0,0,2.536.889l27.892-10.15a2.124,2.124,0,0,0,1.37-2.314l-.344-4.077,7-2.549a6.367,6.367,0,0,1,8.151,3.8l1.148,3.157,3.986-1.45-1.15-3.157A10.611,10.611,0,0,0,234.35,90.13l-47.814,17.4a10.612,10.612,0,0,0-6.336,13.585l1.15,3.157,3.984-1.45Zm36.689,113.2,3.984-1.45L185.87,124.3l-3.984,1.45,4.809,13.216-.83.3a.341.341,0,0,0-.2.437l3.239,8.9a.339.339,0,0,0,.437.2l.83-.3.858,2.36-.776.282a.339.339,0,0,0-.2.437l3.239,8.9a.34.34,0,0,0,.437.2l.776-.282Zm65.272-19.025a6.367,6.367,0,0,1-3.8,8.151l-47.811,17.4a6.37,6.37,0,0,1-8.154-3.8l-.985-2.709-3.984,1.45.985,2.707a10.612,10.612,0,0,0,13.588,6.336l47.811-17.4a10.612,10.612,0,0,0,6.336-13.588l-.985-2.707-3.984,1.45Z" transform="translate(-179.562 -89.491)"/><g transform="translate(26.377 11.599)"><rect class="f" width="1.479" height="1.479" rx="0.219" transform="translate(12.333 0.506) rotate(-20)"/><rect class="f" width="11.741" height="1.479" rx="0.219" transform="translate(0 4.995) rotate(-20)"/></g></g><g transform="translate(64.364 111.763)"><path class="g" d="M204.216,143.957a8.956,8.956,0,1,0,5.354-11.476,8.968,8.968,0,0,0-5.354,11.476Zm5.5-5.894,1.259.587a.581.581,0,0,1,.282.776l-.209.452a.255.255,0,0,0-.018.124.826.826,0,0,0,.44.988l1.83.853a.828.828,0,0,0,1.042-.3.241.241,0,0,0,.083-.093l.212-.452a.586.586,0,0,1,.776-.284l1.256.587a.585.585,0,0,1,.284.778l-.422.9a2.241,2.241,0,0,1-2.978,1.086l-3.948-1.841a2.247,2.247,0,0,1-1.086-2.981l.422-.9a.581.581,0,0,1,.776-.282Zm0,0" transform="translate(-203.676 -131.94)"/></g><path class="b" d="M445.193,105.48a8.544,8.544,0,0,0-6.065-2.016H203.581a8.5,8.5,0,0,0-8.495,8.495v34.205a8.5,8.5,0,0,0,8.495,8.495h1.275l11.59,11.59a4.2,4.2,0,0,0,2.983,1.236h0a4.219,4.219,0,0,0,4.219-4.219v-8.606H439.206a8.506,8.506,0,0,0,8.5-8.495V111.959A8.357,8.357,0,0,0,445.193,105.48Z" transform="translate(-152.929 -65.34)"/><g transform="translate(44.238 40.195)"><path class="h" d="M220.293,151.3H437.93a6.412,6.412,0,0,0,6.414-6.411V110.68c0-7.014-6.414-6.411-6.414-6.411H202.3a6.412,6.412,0,0,0-6.414,6.411v34.205A6.412,6.412,0,0,0,202.3,151.3h2.138l12.2,12.2a2.137,2.137,0,0,0,3.65-1.51ZM202.3,147.023a2.139,2.139,0,0,1-2.138-2.138V110.68a2.139,2.139,0,0,1,2.138-2.138H437.93a2.139,2.139,0,0,1,2.138,2.138v34.205a2.139,2.139,0,0,1-2.138,2.138H218.155a2.137,2.137,0,0,0-2.138,2.135v7.668l-9.177-9.178a2.137,2.137,0,0,0-1.512-.626Z" transform="translate(-195.891 -104.256)"/></g><g transform="translate(52.624 54.515)"><path class="h" d="M213.757,123.746a5.687,5.687,0,0,1-.838,1.011,7.664,7.664,0,0,1-1.378,1.07,8.616,8.616,0,0,1-1.872.851,7.581,7.581,0,0,1-2.337.344,8.4,8.4,0,0,1-3.325-.641,7.627,7.627,0,0,1-2.583-1.784,8.158,8.158,0,0,1-1.688-2.707,9.85,9.85,0,0,1,0-6.784,8.572,8.572,0,0,1,1.688-2.756,7.8,7.8,0,0,1,2.6-1.859,8.165,8.165,0,0,1,3.361-.677,7.788,7.788,0,0,1,4.147,1.119,7.037,7.037,0,0,1,1.329,1.047,7.679,7.679,0,0,1,.9,1.083l-1.675,1.427a9.856,9.856,0,0,0-.7-.874,4.941,4.941,0,0,0-.972-.825,5.7,5.7,0,0,0-1.306-.615,5.393,5.393,0,0,0-1.7-.246,5.527,5.527,0,0,0-2.425.517,5.438,5.438,0,0,0-1.82,1.4,6.173,6.173,0,0,0-1.145,2.068,7.845,7.845,0,0,0-.393,2.51,7.541,7.541,0,0,0,.406,2.5,6.194,6.194,0,0,0,1.145,2.032,5.209,5.209,0,0,0,1.8,1.352,5.521,5.521,0,0,0,2.363.494,5.746,5.746,0,0,0,1.908-.284,5.408,5.408,0,0,0,1.352-.677,5.274,5.274,0,0,0,.913-.8c.238-.271.437-.5.6-.677Z" transform="translate(-199.135 -109.765)"/><path class="h" d="M205.848,109.967h2.363v6.866h8.984v-6.866h2.363v16.416h-2.363v-7.433h-8.984v7.433h-2.363Z" transform="translate(-188.493 -109.522)"/><path class="h" d="M212.6,109.967h2.363v16.416H212.6Z" transform="translate(-177.793 -109.522)"/><path class="h" d="M214.959,109.967H225.3v2.091h-7.975v4.775h6.005v2.117h-6.005v5.318h8.565v2.115h-10.93Z" transform="translate(-174.05 -109.522)"/><path class="h" d="M220.33,109.967h5.489a12.666,12.666,0,0,1,3.58.478,7.492,7.492,0,0,1,2.821,1.5,7.016,7.016,0,0,1,1.846,2.572,9.354,9.354,0,0,1,.664,3.692,9.044,9.044,0,0,1-.664,3.606,7.011,7.011,0,0,1-1.846,2.559,7.574,7.574,0,0,1-2.831,1.515,12.533,12.533,0,0,1-3.6.491H220.33Zm5.414,14.3a6.985,6.985,0,0,0,4.788-1.515,5.687,5.687,0,0,0,1.711-4.493,6.077,6.077,0,0,0-1.649-4.589,6.835,6.835,0,0,0-4.922-1.59h-2.978v12.187Z" transform="translate(-165.536 -109.522)"/><path class="h" d="M227.137,109.967H229.5v16.416h-2.366Z" transform="translate(-154.746 -109.522)"/><path class="h" d="M230.565,126.383l6.13-16.416h4.111l6.005,16.416h-4.061l-1.254-3.764H235.71l-1.254,3.764Zm6.005-6.644h4.038l-1.993-6.2Z" transform="translate(-149.312 -109.522)"/><path class="h" d="M237.535,126.383V109.967h3.718v13.12H249.1v3.3Z" transform="translate(-138.263 -109.522)"/><path class="h" d="M242.857,126.383V109.967h3.718v13.12h7.851v3.3Z" transform="translate(-129.826 -109.522)"/><path class="h" d="M246.513,115.6l.592-5.636h3.839l-1.8,5.636Z" transform="translate(-124.03 -109.522)"/><path class="h" d="M249.265,126.383V109.967H260.49v3.247h-7.507v3.2h5.832v3.151h-5.832v3.544h8.048v3.273Z" transform="translate(-119.668 -109.522)"/><path class="h" d="M254.34,124.342l2.386-2.583a8.331,8.331,0,0,0,1.711,1.352,4.625,4.625,0,0,0,2.5.664,2.991,2.991,0,0,0,1.107-.209,2.238,2.238,0,0,0,.9-.615,1.432,1.432,0,0,0,.357-.972,1.591,1.591,0,0,0-.887-1.427,11.237,11.237,0,0,0-2.808-.985,6.71,6.71,0,0,1-3.1-1.649,4.032,4.032,0,0,1-1.23-3.051,4.914,4.914,0,0,1,.664-2.523,4.82,4.82,0,0,1,1.993-1.846,7.122,7.122,0,0,1,3.348-.7,8.053,8.053,0,0,1,2.818.432,7.421,7.421,0,0,1,1.833.946,6.416,6.416,0,0,1,.962.838l-2.143,2.363a14.2,14.2,0,0,0-1.427-.946,3.986,3.986,0,0,0-2.091-.53,2.588,2.588,0,0,0-1.466.455,1.317,1.317,0,0,0-.677,1.1,1.536,1.536,0,0,0,.887,1.352,8.613,8.613,0,0,0,2.438.863,10.17,10.17,0,0,1,2.327.884,5.038,5.038,0,0,1,1.833,1.649,4.849,4.849,0,0,1,.713,2.758,4.382,4.382,0,0,1-.838,2.634,5.694,5.694,0,0,1-2.265,1.82,7.459,7.459,0,0,1-3.2.664,9.665,9.665,0,0,1-2.88-.393,8.38,8.38,0,0,1-2.192-1.021A8.92,8.92,0,0,1,254.34,124.342Z" transform="translate(-111.623 -109.795)"/><path class="h" d="M260.414,126.383V109.967H266.4a6.437,6.437,0,0,1,3.312.75,4.641,4.641,0,0,1,1.859,1.957,5.806,5.806,0,0,1,.589,2.585,5.194,5.194,0,0,1-.788,2.939,5,5,0,0,1-2.055,1.8,6.319,6.319,0,0,1-2.743.6h-2.536v5.783Zm3.619-8.787H266.2a2.146,2.146,0,0,0,1.624-.639,2.248,2.248,0,0,0,.615-1.626,2.354,2.354,0,0,0-.615-1.686,2.158,2.158,0,0,0-1.65-.651h-2.14Z" transform="translate(-101.994 -109.522)"/><path class="h" d="M265.918,126.383V109.967h11.225v3.247h-7.51v3.2h5.835v3.151h-5.835v3.544h8.05v3.273Z" transform="translate(-93.269 -109.522)"/><path class="h" d="M271.44,126.383V109.967h6.1a6.588,6.588,0,0,1,3.2.7,4.693,4.693,0,0,1,1.921,1.872,5.265,5.265,0,0,1,.639,2.572,5.414,5.414,0,0,1-.7,2.779,5.111,5.111,0,0,1-1.98,1.921l3.643,6.572h-4.087l-3.053-6.029h-2.066v6.029Zm3.619-9.007h2.288a2.238,2.238,0,0,0,1.613-3.767,2.2,2.2,0,0,0-1.613-.592h-2.288Z" transform="translate(-84.516 -109.522)"/><path class="h" d="M281.928,126.383V113.24H276.61v-3.273h14.351v3.273h-5.292v13.143Z" transform="translate(-76.32 -109.522)"/><path class="h" d="M290.865,127.075a8.613,8.613,0,0,1-3.371-.651,8.337,8.337,0,0,1-4.529-4.591,9.347,9.347,0,0,1,0-6.8,8.425,8.425,0,0,1,1.8-2.745,8.138,8.138,0,0,1,2.72-1.833,9.055,9.055,0,0,1,6.758,0,8.321,8.321,0,0,1,2.72,1.833,8.418,8.418,0,0,1,1.81,2.745,9.382,9.382,0,0,1,0,6.8,8.337,8.337,0,0,1-4.529,4.591A8.626,8.626,0,0,1,290.865,127.075Zm0-3.5a4.329,4.329,0,0,0,2.5-.714,4.633,4.633,0,0,0,1.6-1.895,6.047,6.047,0,0,0,.553-2.585,5.965,5.965,0,0,0-.553-2.572,4.576,4.576,0,0,0-1.6-1.869,4.791,4.791,0,0,0-5,0,4.647,4.647,0,0,0-1.613,1.869,5.828,5.828,0,0,0-.566,2.572,5.908,5.908,0,0,0,.566,2.585,4.7,4.7,0,0,0,1.613,1.895A4.32,4.32,0,0,0,290.865,123.579Z" transform="translate(-67.264 -109.795)"/></g></g></g></svg>